<?xml version="1.0" encoding="UTF-8" standalone="no"?><!DOCTYPE svg PUBLIC "-//W3C//DTD SVG 1.1//EN" "http://www.w3.org/Graphics/SVG/1.1/DTD/svg11.dtd"><svg width="100%" height="100%" viewBox="0 0 1182 1182" version="1.1" xmlns="http://www.w3.org/2000/svg" xmlns:xlink="http://www.w3.org/1999/xlink" xml:space="preserve" xmlns:serif="http://www.serif.com/" style="fill-rule:evenodd;clip-rule:evenodd;stroke-linejoin:round;stroke-miterlimit:2;"><path d="M1165.62,592.34c0,-318.02 -258.103,-576.124 -576.123,-576.124c-318.02,0 -576.123,258.104 -576.123,576.124c-0,318.02 258.103,576.123 576.123,576.123c318.02,0 576.123,-258.103 576.123,-576.123m-403.286,-316.868l201.643,201.643l-201.643,201.643l0,-144.031l-230.449,0l-0,-115.224l230.449,-0l0,-144.031Zm-345.674,633.736l-201.643,-201.644l201.643,-201.643l0,144.031l230.449,0l0,115.225l-230.449,-0l0,144.031Z" style="fill:#808080;fill-rule:nonzero;"/></svg>