<?xml version="1.0" encoding="UTF-8" standalone="no"?><!DOCTYPE svg PUBLIC "-//W3C//DTD SVG 1.1//EN" "http://www.w3.org/Graphics/SVG/1.1/DTD/svg11.dtd"><svg width="100%" height="100%" viewBox="0 0 15159 14813" version="1.1" xmlns="http://www.w3.org/2000/svg" xmlns:xlink="http://www.w3.org/1999/xlink" xml:space="preserve" xmlns:serif="http://www.serif.com/" style="fill-rule:evenodd;clip-rule:evenodd;stroke-linejoin:round;stroke-miterlimit:2;"><path d="M5622.02,5856.19l3914.3,0l0,8595.79l-3914.3,-0l0,-8595.79Zm5480.01,8595.79l2348.58,-0c861.145,-0 1565.72,-704.574 1565.72,-1565.72l-0,-7045.73l-3914.3,-0l0,8611.45Zm2348.58,-14091.5l-11742.9,0c-861.145,0 -1565.72,704.574 -1565.72,1565.72l-0,2348.58l14874.3,-0l-0,-2348.58c-0,-861.145 -704.573,-1565.72 -1565.72,-1565.72m-13308.6,12525.7c-0,861.145 704.573,1565.72 1565.72,1565.72l2348.58,-0l-0,-8611.45l-3914.3,-0l-0,7045.73Z" style="fill:#808080;fill-rule:nonzero;"/></svg>